<svg width="62" height="38" viewBox="0 0 62 38" fill="none" xmlns="http://www.w3.org/2000/svg">
<g clip-path="url(#clip0_1_2026)">
<path d="M31.4334 37.499C31.4334 37.499 60.5117 29.5706 62.0004 0.500977C62.0004 0.500977 59.4147 10.9938 48.8335 10.2945C38.2524 9.59506 33.0759 13.0143 30.1797 19.3885C30.1797 19.3885 38.4091 11.1483 42.9548 17.6779C47.5005 24.2076 31.4334 37.499 31.4334 37.499Z" fill="#222222"/>
<path d="M31.4331 37.4986C31.4331 37.4986 17.8714 36.0221 7.99849 23.8963C-1.87441 11.7705 9.64498 8.03942 19.1281 11.3042C28.6112 14.5691 30.1784 19.3881 30.1784 19.3881C30.1784 19.3881 25.701 15.3452 19.9016 16.5885C14.1023 17.8319 15.582 25.1765 20.9876 29.9178C26.3932 34.6591 31.4331 37.4986 31.4331 37.4986Z" fill="#222222"/>
<path d="M6.66014 6.23686C7.36334 8.40278 6.49841 10.6205 4.72735 11.1834C2.9563 11.7463 0.949168 10.4531 0.244965 8.2882C-0.459238 6.12328 0.4067 3.90455 2.17776 3.34165C3.94881 2.77875 5.95192 4.07193 6.66014 6.23686Z" fill="#222222"/>
<path d="M50.8166 8.47038C52.5882 7.90391 53.4537 5.68926 52.7497 3.52381C52.0457 1.35837 50.0389 0.0621431 48.2673 0.628613C46.4957 1.19508 45.6303 3.40974 46.3342 5.57518C47.0382 7.74063 49.045 9.03685 50.8166 8.47038Z" fill="#222222"/>
</g>
<defs>
<clipPath id="clip0_1_2026">
<rect width="62" height="37" fill="white" transform="translate(0 0.5)"/>
</clipPath>
</defs>
</svg>
