<svg width="83" height="83" viewBox="0 0 83 83" fill="none" xmlns="http://www.w3.org/2000/svg">
<path d="M30.4736 13.5723H66.0025" stroke="#F9895B" stroke-width="3" stroke-miterlimit="10" stroke-linecap="round" stroke-linejoin="round"/>
<path d="M1.5 69.4276C1.5 62.7602 6.90507 57.3551 13.5724 57.3551C20.2398 57.3551 25.6449 62.7602 25.6449 69.4276C25.6449 76.0949 20.2398 81.5 13.5724 81.5C6.90507 81.5 1.5 76.0949 1.5 69.4276Z" stroke="#F9895B" stroke-width="3" stroke-miterlimit="10" stroke-linecap="round" stroke-linejoin="round"/>
<path d="M1.5 69.4277V13.5726C1.5 6.90524 6.90507 1.50017 13.5724 1.50017C20.2398 1.50017 25.6449 6.90524 25.6449 13.5726V69.4277" stroke="#F9895B" stroke-width="3" stroke-miterlimit="10" stroke-linecap="round" stroke-linejoin="round"/>
<path d="M6.3291 69.4274C6.3291 65.427 9.57208 62.184 13.5726 62.184C17.573 62.184 20.816 65.427 20.816 69.4274C20.816 73.4279 17.573 76.6709 13.5726 76.6709C9.57208 76.6709 6.3291 73.4279 6.3291 69.4274Z" stroke="#F9895B" stroke-width="3" stroke-miterlimit="10" stroke-linecap="round" stroke-linejoin="round"/>
<path d="M11.1582 69.4278C11.1582 68.0944 12.2392 67.0133 13.5727 67.0133C14.9061 67.0133 15.9872 68.0944 15.9872 69.4278C15.9872 70.7612 14.9061 71.8423 13.5727 71.8423C12.2392 71.8423 11.1582 70.7612 11.1582 69.4278Z" stroke="#F9895B" stroke-width="3" stroke-miterlimit="10" stroke-linecap="round" stroke-linejoin="round"/>
<path d="M63.44 69.8646L81.1414 15.8293C81.374 15.1192 81.4998 14.3605 81.4998 13.5724C81.4998 9.57211 78.2569 6.32897 74.2564 6.32897C71.5134 6.32897 69.1264 7.85364 67.8969 10.1018L47.3751 47.6972C56.7095 47.6972 64.2765 55.2642 64.2765 64.5986C64.2765 73.933 56.7095 81.5 47.3751 81.5H13.5723" stroke="#F9895B" stroke-width="3" stroke-miterlimit="10" stroke-linecap="round" stroke-linejoin="round"/>
</svg>
