<svg width="85" height="81" viewBox="0 0 85 81" fill="none" xmlns="http://www.w3.org/2000/svg">
<path d="M78.6084 80.5H6.38825C2.86543 80.5 0 77.1074 0 72.9364V8.06361C0 3.89656 2.86543 0.5 6.38825 0.5H78.6117C82.1346 0.5 85 3.89263 85 8.06361V72.9324C85 77.1033 82.1346 80.496 78.6117 80.496L78.6084 80.5ZM2.5301 59.4403V72.936C2.5301 75.452 4.26002 77.5041 6.38833 77.5041H78.6118C80.7401 77.5041 82.4701 75.4559 82.4701 72.936V59.4403H2.5301ZM2.5301 56.4447H82.4699V8.06361C82.4699 5.54371 80.74 3.49551 78.6117 3.49551H6.38816C4.25985 3.49551 2.52993 5.54371 2.52993 8.06361L2.5301 56.4447ZM35.9954 46.5656C35.1653 46.5656 34.3286 46.3061 33.5715 45.7872C32.0541 44.7534 31.151 42.8899 31.151 40.8182V23.0927C31.151 21.017 32.0574 19.1615 33.5715 18.1236C35.0889 17.0898 36.9018 17.0898 38.4192 18.1236L51.3884 26.9885C52.9058 28.0224 53.8123 29.8858 53.8123 31.9575C53.8123 34.0293 52.9058 35.8887 51.3884 36.9266L38.4192 45.7914C37.6588 46.3104 36.8287 46.5698 35.9986 46.5698L35.9954 46.5656ZM35.9954 20.3371C35.5969 20.3371 35.1985 20.4629 34.8366 20.7106C34.1094 21.2059 33.6811 22.0944 33.6811 23.0851V40.8106C33.6811 41.8052 34.1161 42.6897 34.8366 43.185C35.5637 43.6804 36.427 43.6804 37.1542 43.185L50.1201 34.3202C50.8472 33.8248 51.2789 32.9364 51.2789 31.9457C51.2789 30.9511 50.8439 30.0666 50.1201 29.5712L37.1508 20.7064C36.7889 20.4587 36.3904 20.3329 35.992 20.3329L35.9954 20.3371ZM55.6252 73.6878C53.3442 73.6878 51.4251 71.848 50.8639 69.3516H10.9837C10.2864 69.3516 9.71862 68.6794 9.71862 67.8538C9.71862 67.0283 10.2864 66.356 10.9837 66.356H50.8639C51.425 63.8636 53.3475 62.0199 55.6252 62.0199C57.903 62.0199 59.8287 63.8597 60.3899 66.356H74.0128C74.7101 66.356 75.2779 67.0283 75.2779 67.8538C75.2779 68.6794 74.7101 69.3516 74.0128 69.3516H60.3899C59.8288 71.8441 57.9063 73.6878 55.6252 73.6878ZM55.6252 65.0155C54.3038 65.0155 53.228 66.2853 53.228 67.8538C53.228 69.4185 54.3004 70.6921 55.6252 70.6921C56.9467 70.6921 58.0225 69.4224 58.0225 67.8538C58.0225 66.2892 56.9467 65.0155 55.6252 65.0155Z" fill="#F9895B"/>
</svg>
