<svg width="84" height="85" viewBox="0 0 84 85" fill="none" xmlns="http://www.w3.org/2000/svg">
<path d="M53.4266 55.8511L57.2399 64.0511C57.2399 64.0511 74.3821 67.6911 74.3821 76.3488C74.3821 82.5 66.7554 82.5 66.7554 82.5H46.4443L36.4443 76.9444" stroke="#F9895B" stroke-width="4" stroke-linecap="round" stroke-linejoin="round"/>
<path d="M30.5737 55.8511L26.7648 64.0511C26.7648 64.0511 9.61816 67.6911 9.61816 76.3488C9.61816 82.5 17.2448 82.5 17.2448 82.5H26.4448L36.4448 76.9444L48.667 69.1666" stroke="#F9895B" stroke-width="4" stroke-linecap="round" stroke-linejoin="round"/>
<path d="M2 59.9489C2 59.9489 11.5244 57.9 17.24 55.8511C22.9511 27.1489 40.0889 29.1978 42 29.1978C43.9067 29.1978 61.0489 27.1489 66.76 55.8511C72.4756 57.8956 82 59.9489 82 59.9489M42 20.2778C44.3575 20.2778 46.6184 19.3413 48.2854 17.6743C49.9524 16.0073 50.8889 13.7464 50.8889 11.3889C50.8889 9.03141 49.9524 6.77048 48.2854 5.10349C46.6184 3.4365 44.3575 2.5 42 2.5C39.6425 2.5 37.3816 3.4365 35.7146 5.10349C34.0476 6.77048 33.1111 9.03141 33.1111 11.3889C33.1111 13.7464 34.0476 16.0073 35.7146 17.6743C37.3816 19.3413 39.6425 20.2778 42 20.2778Z" stroke="#F9895B" stroke-width="4" stroke-linecap="round" stroke-linejoin="round"/>
</svg>
