<svg width="117" height="81" viewBox="0 0 117 81" fill="none" xmlns="http://www.w3.org/2000/svg">
<path d="M113.716 24.6686H111.918V16.1423C111.918 13.2327 109.763 10.8671 107.113 10.8671H101.645C100.925 10.8671 100.251 11.0569 99.6346 11.3668V6.67992C99.6346 3.49844 97.2781 0.911382 94.3801 0.911382H88.1864C85.2884 0.911382 82.9319 3.49844 82.9319 6.67992V24.6745H77.1819C76.6576 22.486 74.86 20.8604 72.7051 20.8604C71.5528 20.8604 70.5042 21.3411 69.6917 22.1128C68.7699 20.3671 67.0703 19.1779 65.0998 19.1779C63.6306 19.1779 62.3054 19.8294 61.3374 20.8857C60.3119 19.4626 58.7447 18.5328 56.9645 18.5328C55.1899 18.5328 53.617 19.4626 52.5915 20.8857C51.6293 19.8294 50.2984 19.1779 48.8292 19.1779C46.0002 19.1779 43.7071 21.6131 43.5344 24.6744H33.7455V6.26854C33.7455 3.08706 31.3889 0.5 28.4909 0.5H22.2973C19.3993 0.5 17.0427 3.08706 17.0427 6.26854V10.9554C16.432 10.6455 15.7521 10.4557 15.0319 10.4557H9.56422C6.91386 10.4557 4.7591 12.8213 4.7591 15.7309V24.6746H3.2899C1.47496 24.6746 0 26.2939 0 28.2863V31.6197C0 33.6122 1.47496 35.2314 3.2899 35.2314H4.7591V43.4478C4.7591 46.3574 6.91386 48.7229 9.56422 48.7229H15.0319C15.7521 48.7229 16.4262 48.5331 17.0427 48.2232V52.9101C17.0427 56.0916 19.3993 58.6787 22.2973 58.6787H28.4909C31.3889 58.6787 33.7455 56.0916 33.7455 52.9101V35.2313H38.4642C38.3662 35.4337 38.251 35.6108 38.1646 35.8258C36.5283 39.9372 37.3868 45.9461 38.8848 49.7918C40.3079 53.454 42.0363 55.5603 43.5632 57.4198C46.4786 60.9682 48.9906 64.0296 49.1403 77.6474C49.1403 77.679 49.1518 77.7043 49.1576 77.7296C49.1634 77.8371 49.1922 77.932 49.2152 78.0332C49.2383 78.1281 49.2556 78.2166 49.2959 78.2989C49.3362 78.3874 49.3881 78.457 49.4457 78.5329C49.5033 78.6151 49.5494 78.691 49.6185 78.7606C49.6819 78.8238 49.7568 78.8618 49.8259 78.9124C49.9124 78.9693 49.993 79.0199 50.0852 79.0579C50.114 79.0705 50.1313 79.0895 50.1601 79.1021C53.1273 80.032 56.1349 80.5 59.2058 80.5C63.0256 80.5 66.9493 79.7789 71.0457 78.3369C71.6219 78.1345 72.0194 77.5399 72.0194 76.8758C72.0194 75.2123 71.9388 73.5108 71.8639 71.8661C71.6853 68.0583 71.5066 64.1242 72.3075 60.5252C72.9643 57.584 74.0533 55.4272 75.1133 53.3398C77.3142 48.9818 79.3998 44.8451 77.6485 35.2367H82.926V53.3333C82.926 56.5148 85.2826 59.1019 88.1806 59.1019H94.3742C97.2722 59.1019 99.6288 56.5148 99.6288 53.3333V48.6464C100.24 48.9564 100.919 49.1461 101.64 49.1461H107.107C109.758 49.1461 111.912 46.7806 111.912 43.8709V35.2435H113.71C115.525 35.2435 117 33.6242 117 31.6318V28.2984C117 26.3059 115.525 24.6867 113.71 24.6867L113.716 24.6686ZM70.861 25.9589C70.861 24.8393 71.6906 23.9285 72.7104 23.9285C73.7302 23.9285 74.5599 24.8393 74.5599 25.9589V33.859C74.5599 34.9786 73.7302 35.8894 72.7104 35.8894C71.6906 35.8894 70.861 34.9785 70.861 33.859V25.9589ZM65.1052 22.246C66.4995 22.246 67.6345 23.492 67.6345 25.0227V34.5736C67.6345 36.1043 66.4995 37.3502 65.1052 37.3502C63.7109 37.3502 62.576 36.1042 62.576 34.5736V25.0227C62.576 23.492 63.711 22.246 65.1052 22.246ZM54.164 24.6875C54.164 22.986 55.4257 21.6072 56.9698 21.6072C58.5197 21.6072 59.7756 22.9924 59.7756 24.6875V34.9152C59.7756 36.6167 58.5138 37.9955 56.9698 37.9955C56.2899 37.9955 55.6619 37.6982 55.1606 37.2238C56.3302 36.294 57.2981 35.1682 57.6151 33.6376C58.2834 30.4054 57.2982 28.7798 56.3533 27.9828C55.7368 27.4579 54.9763 27.1922 54.1638 27.0784L54.164 24.6875ZM46.311 25.0227C46.311 23.492 47.446 22.246 48.8402 22.246C50.2345 22.246 51.3695 23.4921 51.3695 25.0227V27.2302C50.1711 27.4959 49.0303 27.9576 48.1892 28.4446C47.6073 28.7799 47.0945 29.0835 46.6335 29.3555C46.5125 29.425 46.4204 29.482 46.3109 29.5452L46.311 25.0227ZM3.3011 32.1511C3.03606 32.1511 2.81136 31.9044 2.81136 31.6134V28.2801C2.81136 27.9891 3.03606 27.7424 3.3011 27.7424H4.77029V32.1511L3.3011 32.1511ZM15.0489 45.6426H9.58119C8.47497 45.6426 7.57037 44.6558 7.57037 43.4351V15.7315C7.57037 14.5171 8.46918 13.524 9.58119 13.524H15.0489C16.1551 13.524 17.0597 14.5107 17.0597 15.7315V43.4351C17.0597 44.6495 16.1609 45.6426 15.0489 45.6426ZM30.9681 52.9039C30.9681 54.3903 29.8677 55.6048 28.5079 55.6048H22.3142C20.9603 55.6048 19.854 54.3904 19.854 52.9039V6.26171C19.854 4.77529 20.9602 3.56082 22.3142 3.56082H28.5079C29.8619 3.56082 30.9681 4.77524 30.9681 6.26171V52.9039ZM33.7624 27.7425H43.5168V31.0633C43.0962 31.2593 42.6583 31.4554 42.1398 31.6578C41.7999 31.7907 41.4945 31.9741 41.1891 32.1575H33.7624L33.7624 27.7425ZM72.6763 51.8352C71.5816 53.9983 70.3429 56.4463 69.5997 59.7795C68.7009 63.815 68.891 67.9832 69.0754 72.0061C69.133 73.2331 69.1906 74.4982 69.2137 75.7316C63.1065 77.7115 57.4255 77.9138 51.9168 76.4021C51.6115 62.6385 48.7191 59.0778 45.6482 55.3455C44.133 53.5049 42.7041 51.7655 41.4654 48.5712C40.1921 45.2949 39.5007 40.1399 40.7394 37.0405C41.2465 35.7754 42.007 34.9594 43.0728 34.5357C44.0062 34.1688 44.7379 33.8336 45.4466 33.4667C45.4524 33.4667 45.4581 33.4604 45.4581 33.4604C46.2417 33.0556 47.0023 32.6128 47.9529 32.0499C48.4081 31.7842 48.9093 31.4869 49.4855 31.1517C51.1794 30.1713 53.7433 29.6463 54.6421 30.4053C55.2125 30.886 55.0339 32.2017 54.8841 32.948C54.6191 34.2384 52.8273 35.2946 51.093 36.313C49.3818 37.3187 47.613 38.3623 46.7603 39.9752C45.7521 41.8854 47.2904 44.6431 49.2551 46.2687C50.1251 46.9898 50.8741 47.4389 51.4733 47.7994C53.0117 48.7229 53.7087 49.1466 54.8611 53.7133C55.0685 54.5293 55.8348 55.01 56.5839 54.7823C57.3271 54.5546 57.765 53.7133 57.5576 52.891C56.1575 47.3375 54.9072 46.3571 52.8159 45.1047C52.2397 44.7569 51.6405 44.4027 50.9319 43.8144C49.7969 42.8783 49.2898 41.7904 49.2381 41.4108C49.7508 40.5886 51.099 39.7916 52.4126 39.0198C52.499 38.9692 52.5912 38.9123 52.6834 38.8617C53.7378 40.2343 55.2934 41.0629 56.9642 41.0629C58.7445 41.0629 60.3116 40.1331 61.3372 38.71C62.2993 39.7663 63.6303 40.4178 65.0995 40.4178C67.0124 40.4178 68.6774 39.2983 69.6166 37.6347C70.4405 38.4443 71.5122 38.9503 72.7048 38.9503C73.6497 38.9503 74.5255 38.634 75.2572 38.1027C76.1099 44.9845 74.5025 48.204 72.6703 51.8284L72.6763 51.8352ZM77.3605 32.1517V27.743H82.9376V32.1517H77.3605ZM96.8462 53.3152C96.8462 54.8016 95.74 56.0161 94.386 56.0161H88.1923C86.8384 56.0161 85.7321 54.8016 85.7321 53.3152V6.67299C85.7321 5.18658 86.8326 3.9721 88.1923 3.9721H94.386C95.74 3.9721 96.8462 5.18653 96.8462 6.67299V53.3152ZM109.13 43.8464C109.13 45.0608 108.231 46.0539 107.119 46.0539H101.651C100.545 46.0539 99.6405 45.0671 99.6405 43.8464V16.1428C99.6405 14.9284 100.539 13.9353 101.651 13.9353H107.119C108.225 13.9353 109.13 14.922 109.13 16.1428V43.8464ZM114.212 31.6072C114.212 31.8981 113.987 32.1448 113.722 32.1448H111.924V27.7361H113.722C113.987 27.7361 114.212 27.9828 114.212 28.2737V31.6072Z" fill="#F9895B"/>
</svg>
