<svg width="21" height="21" viewBox="0 0 21 21" fill="none" xmlns="http://www.w3.org/2000/svg">
<path d="M0.776367 9.74121C1.9867 9.90254 3.04104 10.1345 3.94434 10.4355L4.40625 10.5996C5.43654 10.9928 6.27675 11.52 6.94336 12.1729L7.21777 12.46C7.83433 13.1482 8.31234 13.9988 8.64062 15.0283L8.77148 15.4805C9.04751 16.5257 9.21071 17.769 9.25781 19.2178C8.28217 19.037 7.38772 18.7732 6.57324 18.4219L6.13184 18.2188C5.11988 17.7264 4.24995 17.1072 3.5166 16.3613L3.21094 16.0342C2.51528 15.2504 1.96253 14.3551 1.55273 13.3438L1.38574 12.9033C1.04714 11.9442 0.843404 10.8915 0.776367 9.74121ZM19.2793 9.6875C19.1635 11.8487 18.5079 13.7081 17.3252 15.292C16.176 16.8308 14.6549 17.9584 12.7393 18.6738C12.7085 18.1395 12.6675 17.6231 12.6123 17.125L12.5127 16.3369C12.3816 15.4215 12.185 14.5467 11.9238 13.7129C12.5824 12.6697 13.4439 11.796 14.5166 11.0898L14.7539 10.9395C15.8403 10.2681 17.3336 9.83536 19.2793 9.6875ZM10.0244 1.18457C10.1689 1.37314 10.3121 1.56705 10.4512 1.76855L10.7617 2.2373C11.0683 2.71786 11.3507 3.21425 11.6074 3.72656L11.8555 4.24414V4.24512C12.0968 4.77019 12.3113 5.30125 12.498 5.83887L12.6748 6.37793C12.8418 6.91467 12.9718 7.4351 13.0664 7.93848C12.4539 8.28619 11.8899 8.6655 11.377 9.0791L11.1055 9.30566C10.6982 9.65603 10.3345 10.0176 10.0166 10.3906C9.77088 10.1083 9.49884 9.83067 9.2002 9.55859L8.94336 9.33008C8.35937 8.82766 7.7037 8.36735 6.98047 7.94531C7.04358 7.60832 7.12331 7.26403 7.21875 6.91211L7.37402 6.37793C7.54257 5.83621 7.73888 5.30121 7.96191 4.77246L8.19336 4.24609C8.43406 3.72232 8.69938 3.21414 8.98926 2.72266L9.28711 2.2373C9.52359 1.86607 9.77056 1.51578 10.0244 1.18457Z" stroke="#F9895B" stroke-width="1.5"/>
</svg>
