<svg width="71" height="71" viewBox="0 0 71 71" fill="none" xmlns="http://www.w3.org/2000/svg">
<rect x="0.5" y="0.5" width="70" height="70" rx="35" fill="#F9895B"/>
<path d="M51.0718 28.7676C51.0695 26.7665 49.4478 25.1449 47.4467 25.1426H31.911C31.593 25.1415 31.2765 25.1849 30.9705 25.2715C30.7769 25.3182 25.6614 27.2467 22.6294 28.3916H22.6252C22.0343 28.5566 21.4965 28.8727 21.0649 29.3088C20.3794 29.9861 19.9956 30.9111 20.0002 31.8748C20.0011 33.1488 20.6712 34.3287 21.7651 34.9819C20.6717 35.6356 20.0017 36.8152 20.0002 38.0891C20.0022 39.3635 20.6733 40.5432 21.7677 41.1962C20.3672 42.0309 19.6971 43.6986 20.1308 45.2702C20.5644 46.8419 21.9948 47.93 23.6252 47.9284H39.161C39.6968 47.9279 40.2256 47.8076 40.7089 47.5763C40.7127 47.5765 40.7165 47.5765 40.7203 47.5763L49.0521 44.4468C50.242 43.8607 51.0155 42.6701 51.0677 41.3447C51.1199 40.0193 50.4424 38.7717 49.3022 38.0937C49.5606 37.944 49.7974 37.7596 50.006 37.5458C50.6914 36.8692 51.0755 35.9451 51.0718 34.9819C51.0672 33.7094 50.3974 32.532 49.3059 31.8779C49.5631 31.7282 49.799 31.5444 50.007 31.3315C50.6921 30.6547 51.0758 29.7306 51.0718 28.7676ZM31.2559 26.2669C31.4691 26.2073 31.6896 26.1775 31.911 26.1783H47.4467C48.8761 26.18 50.0343 27.3383 50.036 28.7676C50.0392 29.4548 49.7654 30.1144 49.2763 30.5972C49.1004 30.7803 48.8944 30.932 48.6673 31.0457C48.6394 31.0607 48.6155 31.0747 48.5891 31.0881C47.8905 31.3471 46.6606 31.809 44.7544 32.5247L42.453 33.389C42.9704 32.267 42.8802 30.9587 42.2137 29.9183C41.5473 28.8779 40.3965 28.2489 39.161 28.2498H25.9411C28.5195 27.2788 31.0451 26.3337 31.2559 26.2669ZM21.0359 31.8748C21.033 31.1863 21.3078 30.5258 21.7982 30.0426C22.1112 29.7248 22.5038 29.4968 22.9349 29.3823C22.9479 29.3782 22.9629 29.3735 22.9779 29.3678C23.1892 29.3125 23.4068 29.2848 23.6252 29.2855H39.161C40.5903 29.2872 41.7486 30.4455 41.7503 31.8748C41.7465 32.8436 41.2059 33.7305 40.3464 34.1777C40.3312 34.1835 40.3163 34.1901 40.3018 34.1974C39.9477 34.3745 39.5569 34.4659 39.161 34.4641H23.6252C22.1959 34.4624 21.0376 33.3041 21.0359 31.8748ZM21.0359 38.0891C21.0385 36.6601 22.1963 35.5023 23.6252 35.4998H39.161C40.5903 35.5015 41.7486 36.6598 41.7503 38.0891C41.7465 39.0579 41.2059 39.9448 40.3464 40.392C40.3312 40.3978 40.3163 40.4044 40.3018 40.4117C39.9477 40.5888 39.5569 40.6802 39.161 40.6784H23.6252C22.1959 40.6767 21.0376 39.5184 21.0359 38.0891ZM23.6252 46.8927C22.1952 46.8927 21.0359 45.7334 21.0359 44.3034C21.0359 42.8734 22.1952 41.7141 23.6252 41.7141H39.161C40.591 41.7141 41.7503 42.8734 41.7503 44.3034C41.7503 45.7334 40.591 46.8927 39.161 46.8927H23.6252ZM50.036 41.1962C50.0392 41.8833 49.7655 42.5428 49.2769 43.0258C49.0907 43.2143 48.8767 43.3733 48.6425 43.4971L42.4494 45.8197C43.2211 44.1612 42.6288 42.1877 41.0714 41.2283L47.9071 38.6639C49.1352 38.883 50.0312 39.9487 50.036 41.1962ZM50.036 34.9819C50.0392 35.6691 49.7654 36.3287 49.2763 36.8115C49.1004 36.9946 48.8944 37.1463 48.6673 37.26C48.6389 37.2755 48.6119 37.2895 48.5881 37.303L42.4525 39.6038C43.2195 37.9448 42.6265 35.9743 41.0714 35.014L45.1164 33.4946C46.2981 33.0508 47.2163 32.7059 47.9128 32.4454C49.1388 32.6698 50.031 33.7356 50.036 34.9819Z" fill="white"/>
<path d="M40.1971 31.8753C40.1971 31.5893 39.9652 31.3574 39.6792 31.3574H23.1077C22.8217 31.3574 22.5898 31.5893 22.5898 31.8753C22.5898 32.1613 22.8217 32.3931 23.1077 32.3931H39.6792C39.9652 32.3931 40.1971 32.1613 40.1971 31.8753Z" fill="white"/>
<path d="M40.1971 38.0891C40.1971 37.8031 39.9652 37.5713 39.6792 37.5713H23.1077C22.8217 37.5713 22.5898 37.8031 22.5898 38.0891C22.5898 38.3752 22.8217 38.607 23.1077 38.607H39.6792C39.9652 38.607 40.1971 38.3752 40.1971 38.0891Z" fill="white"/>
<path d="M39.6792 43.7856H23.1077C22.8217 43.7856 22.5898 44.0175 22.5898 44.3035C22.5898 44.5895 22.8217 44.8214 23.1077 44.8214H39.6792C39.9652 44.8214 40.1971 44.5895 40.1971 44.3035C40.1971 44.0175 39.9652 43.7856 39.6792 43.7856Z" fill="white"/>
<path d="M25.179 21C24.893 21 24.6611 21.2319 24.6611 21.5179V22.5536C24.6611 22.8396 24.893 23.0714 25.179 23.0714C25.465 23.0714 25.6969 22.8396 25.6969 22.5536V21.5179C25.6969 21.2319 25.465 21 25.179 21Z" fill="white"/>
<path d="M24.6611 25.661C24.6611 25.947 24.893 26.1789 25.179 26.1789C25.465 26.1789 25.6969 25.947 25.6969 25.661V24.6253C25.6969 24.3393 25.465 24.1074 25.179 24.1074C24.893 24.1074 24.6611 24.3393 24.6611 24.6253V25.661Z" fill="white"/>
<path d="M24.1434 23.0713H23.1077C22.8217 23.0713 22.5898 23.3031 22.5898 23.5891C22.5898 23.8752 22.8217 24.107 23.1077 24.107H24.1434C24.4294 24.107 24.6613 23.8752 24.6613 23.5891C24.6613 23.3031 24.4294 23.0713 24.1434 23.0713Z" fill="white"/>
<path d="M26.2141 24.107H27.2499C27.5359 24.107 27.7677 23.8752 27.7677 23.5891C27.7677 23.3031 27.5359 23.0713 27.2499 23.0713H26.2141C25.9281 23.0713 25.6963 23.3031 25.6963 23.5891C25.6963 23.8752 25.9281 24.107 26.2141 24.107Z" fill="white"/>
<path d="M50.1432 48.3392C49.9401 48.143 49.6171 48.1458 49.4173 48.3455C49.2175 48.5453 49.2147 48.8683 49.411 49.0715L50.1878 49.8483C50.391 50.0445 50.714 50.0417 50.9137 49.842C51.1135 49.6422 51.1163 49.3192 50.92 49.116L50.1432 48.3392Z" fill="white"/>
<path d="M47.8577 47.5182C48.0609 47.7144 48.3839 47.7116 48.5837 47.5119C48.7834 47.3121 48.7862 46.9891 48.59 46.7859L47.8132 46.0091C47.61 45.8129 47.287 45.8157 47.0872 46.0154C46.8875 46.2152 46.8847 46.5382 47.0809 46.7414L47.8577 47.5182Z" fill="white"/>
<path d="M47.0803 49.8483C47.2826 50.0504 47.6104 50.0504 47.8126 49.8483L48.5894 49.0715C48.7856 48.8683 48.7828 48.5453 48.5831 48.3455C48.3833 48.1458 48.0603 48.143 47.8571 48.3392L47.0803 49.116C46.8782 49.3182 46.8782 49.646 47.0803 49.8483Z" fill="white"/>
<path d="M50.1878 46.0091L49.411 46.7859C49.2764 46.9159 49.2224 47.1085 49.2698 47.2895C49.3172 47.4706 49.4586 47.612 49.6397 47.6594C49.8207 47.7068 50.0133 47.6528 50.1433 47.5182L50.9201 46.7414C51.1163 46.5382 51.1135 46.2152 50.9138 46.0154C50.714 45.8157 50.391 45.8129 50.1878 46.0091Z" fill="white"/>
</svg>
