<svg width="71" height="71" viewBox="0 0 71 71" fill="none" xmlns="http://www.w3.org/2000/svg">
<rect x="0.5" y="0.5" width="70" height="70" rx="35" fill="#F9895B"/>
<path d="M51.9876 51.248C51.9302 51.0069 51.6675 50.8556 51.4131 50.9105C45.2758 52.2169 40.564 46.1437 40.5171 46.0823C40.4374 45.9782 40.3155 45.9102 40.1795 45.896C40.0435 45.8784 39.9075 45.9211 39.8066 46.0067C36.4224 48.8231 32.4111 47.3714 30.7523 46.5622C31.8151 46.0826 32.4504 45.6874 32.504 45.6526C32.7221 45.5112 32.776 45.2317 32.6259 45.0279C32.4746 44.8252 32.178 44.7725 31.9577 44.9139C31.9307 44.9315 29.1639 46.6907 24.9645 47.3341C24.3959 47.4239 23.8894 47.2924 23.4345 46.9362C21.1191 45.1299 20.969 38.6291 20.9667 38.5557C20.908 37.0859 21.2738 34.8861 22.0523 32.0156C23.1215 28.0741 25.3431 22.4129 27.519 19.219C27.682 18.9801 27.9751 18.8551 28.2448 18.9044L34.5791 20.4762C35.0293 20.6044 35.306 20.8609 35.4502 21.2807C35.4908 21.3991 35.5185 21.5269 35.5366 21.6613L34.1102 21.3114C33.8488 21.2489 33.5908 21.3914 33.5239 21.6315C33.456 21.8715 33.6095 22.117 33.8663 22.1795L35.5212 22.5854C35.4816 22.8915 35.4132 23.2114 35.3235 23.5364L33.5943 23.0608C33.3376 22.9939 33.0738 23.1277 32.9976 23.3644C32.9226 23.6022 33.0679 23.8522 33.3223 23.9223L35.0477 24.397C34.9326 24.7117 34.8059 25.0208 34.6763 25.3141L33.1851 24.8462C32.9354 24.764 32.6622 24.8923 32.5778 25.129C32.4934 25.3635 32.6282 25.6178 32.8802 25.6968L34.2867 26.138C33.9609 26.7845 33.6734 27.2586 33.572 27.3825C33.171 27.8308 32.2976 28.0928 31.6223 27.9689C31.1744 27.8856 30.8837 27.6543 30.7594 27.2849C30.7278 27.1764 30.7196 26.7248 30.9388 26.4629C31.0104 26.3763 31.1404 26.2646 31.4453 26.2646C31.4593 26.2646 31.4746 26.2668 31.4911 26.2656C31.7502 26.2656 31.9635 26.0727 31.9706 25.8283C31.9787 25.5805 31.7689 25.3745 31.504 25.3679C31.0635 25.3484 30.7404 25.4773 30.5003 25.639L28.4992 25.266C28.3468 25.2419 28.192 25.2791 28.0771 25.3789C27.9646 25.4776 27.9095 25.6212 27.9294 25.7647C27.9505 25.9192 28.4641 29.5735 28.9482 31.4061L29.0009 31.6045C29.6551 34.0685 30.3315 36.6157 28.2178 40.8191C28.1111 41.0317 28.1978 41.2861 28.4182 41.4012C28.4921 41.4406 28.573 41.4593 28.6527 41.4593C28.8087 41.4593 28.9622 41.3869 29.0537 41.2565C29.0748 41.2269 31.1663 38.3004 34.0094 37.8883C35.3013 37.7063 36.5757 38.0736 37.7914 38.9942C37.9978 39.151 38.2991 39.1214 38.4667 38.9285C38.6344 38.7356 38.6027 38.4528 38.3964 38.2972C38.085 38.0611 37.7677 37.8697 37.4482 37.695C43.0402 32.4756 49.9029 36.7128 50.1999 36.8997C50.4203 37.0389 50.7193 36.9874 50.867 36.7824C51.017 36.5774 50.9607 36.298 50.7415 36.1587C50.6604 36.1079 42.7085 31.1561 36.5105 37.2867C35.6479 36.9832 34.7643 36.8703 33.8617 37.0016C32.3388 37.2219 31.0339 38.0286 30.0678 38.8397C31.076 35.6918 30.497 33.5106 29.933 31.3886L29.8815 31.1913C29.5262 29.8497 29.1428 27.4121 28.9717 26.27L29.896 26.4424C29.7437 26.8968 29.7779 27.3578 29.8428 27.5524C30.0749 28.2407 30.6399 28.7021 31.436 28.849C32.4547 29.0397 33.687 28.655 34.3083 27.959C34.3936 27.8643 34.8915 27.0763 35.3932 26.0202C35.3943 26.0174 35.3975 26.0163 35.3986 26.0134C35.3993 26.0114 35.3987 26.0094 35.3994 26.0074C36.1111 24.5065 36.8275 22.4653 36.3834 21.0625C36.1536 20.337 35.6272 19.8371 34.8429 19.6125L28.4569 18.0297C27.7793 17.9037 27.0864 18.1854 26.7101 18.7367C24.479 22.0105 22.2093 27.7835 21.1213 31.794C20.3195 34.7479 19.9455 37.0343 20.0064 38.5797C20.0122 38.8636 20.1682 45.5561 22.8189 47.6255C23.3582 48.0465 23.9632 48.2591 24.6221 48.258C24.785 48.258 24.9503 48.2459 25.1192 48.2196C26.9302 47.9425 28.4567 47.4759 29.659 47.0153C30.7446 47.624 35.7847 50.1351 40.0494 46.9877C41.1139 48.2339 44.7365 52 49.6183 52C50.2666 52 50.9372 51.9331 51.6266 51.7852C51.8856 51.7303 52.0474 51.4892 51.9876 51.248Z" fill="white"/>
<path d="M41.993 41.3528C41.8374 41.4844 38.091 44.5183 32.4507 41.332C32.2381 41.2103 31.9618 41.2848 31.8391 41.503C31.7174 41.7178 31.7941 41.9918 32.0101 42.1146C34.0586 43.2721 35.901 43.6601 37.4531 43.6601C40.5966 43.6601 42.5422 42.0642 42.5707 42.0401C42.7603 41.8811 42.7833 41.5984 42.6243 41.4087C42.4654 41.2213 42.1815 41.1939 41.993 41.3528Z" fill="white"/>
<path d="M35.9709 31.0981C35.7232 31.0981 35.5215 31.2998 35.5215 31.5476V33.2486C35.5215 33.4964 35.7232 33.6981 35.9709 33.6981C36.2186 33.6981 36.4203 33.4964 36.4203 33.2486V31.5476C36.4203 31.2998 36.2186 31.0981 35.9709 31.0981Z" fill="white"/>
<path d="M32.9948 32.3312C32.8183 32.5066 32.8183 32.7905 32.9937 32.9658L34.1961 34.1704C34.2837 34.2581 34.3988 34.302 34.5139 34.302C34.629 34.302 34.7441 34.2581 34.8318 34.1704C35.0072 33.995 35.0072 33.7111 34.8318 33.5358L33.6294 32.3312C33.454 32.1559 33.1679 32.1559 32.9948 32.3312Z" fill="white"/>
<path d="M37.109 34.1705C37.1967 34.2581 37.3118 34.302 37.4269 34.302C37.542 34.302 37.6571 34.2582 37.7447 34.1705L38.9482 32.967C39.1236 32.7916 39.1236 32.5066 38.9482 32.3312C38.7729 32.1559 38.4879 32.1559 38.3125 32.3312L37.109 33.5348C36.9337 33.7101 36.9337 33.9951 37.109 34.1705Z" fill="white"/>
</svg>
