<svg width="71" height="71" viewBox="0 0 71 71" fill="none" xmlns="http://www.w3.org/2000/svg">
<rect x="0.5" y="0.5" width="70" height="70" rx="35" fill="#F9895B"/>
<path d="M49.0001 22.4305C48.2432 21.5916 47.1545 21.1111 46.0137 21.1111H40.1507C38.7795 20.3833 37.1753 20 35.4997 20C33.8242 20 32.2199 20.3833 30.8487 21.1111H24.9857C23.8449 21.1111 22.7562 21.5917 21.9993 22.4305C21.2699 23.2388 20.9216 24.2777 21.0148 25.3527L22.6191 43.4027C22.9536 47.1638 26.121 50 29.9848 50H41.0145C44.8785 50 48.0457 47.1639 48.3802 43.4027L49.9845 25.3527C50.0804 24.2778 49.7296 23.2389 49.0001 22.4305ZM48.8904 25.2527L47.2862 43.3027C47.0037 46.486 44.3053 48.8888 41.0145 48.8888H29.9849C26.6914 48.8888 23.9958 46.486 23.7133 43.3027L22.109 25.2527C22.0405 24.4916 22.29 23.7555 22.8083 23.1805C23.3568 22.5722 24.1493 22.225 24.9857 22.225H30.986C31.0765 22.225 31.167 22.2028 31.2493 22.1583C32.486 21.475 33.9559 21.1139 35.4997 21.1139C37.0435 21.1139 38.5135 21.475 39.7502 22.1583C39.8297 22.2028 39.9202 22.225 40.0134 22.225H46.0137C46.8474 22.225 47.6427 22.575 48.1911 23.1805C48.7094 23.7555 48.959 24.4916 48.8904 25.2527ZM29.7958 30.8417L28.9567 30.8944C27.7692 30.9667 26.6751 31.5583 25.9538 32.5166C25.2326 33.475 24.9611 34.6999 25.2079 35.8805L26.9219 44.0859C27.2372 45.5998 28.5782 46.6998 30.1057 46.6998C31.7977 46.6998 33.1908 45.4137 33.3471 43.7054L34.1095 35.3527C34.2192 34.15 33.8051 32.9611 32.9769 32.0916C32.146 31.225 30.986 30.7694 29.7958 30.8417ZM33.018 35.2498L32.2557 43.6024C32.1514 44.733 31.2273 45.5885 30.1057 45.5885C29.091 45.5885 28.2025 44.8607 27.9941 43.8552L26.2802 35.6498C26.0992 34.7886 26.2994 33.8914 26.8259 33.1914C27.3524 32.4914 28.1531 32.0581 29.0225 32.0053L29.8616 31.9526C29.9219 31.9498 29.9823 31.947 30.0426 31.947C30.8489 31.947 31.6222 32.2776 32.1871 32.8664C32.7932 33.5026 33.0976 34.372 33.0153 35.2497L33.018 35.2498ZM42.043 30.8914L41.2039 30.8387C40.0137 30.7637 38.8537 31.222 38.0228 32.0886C37.1919 32.9581 36.7805 34.1442 36.8902 35.3497L37.6526 43.7024C37.8089 45.4079 39.202 46.6968 40.894 46.6968C42.4242 46.6968 43.7625 45.5968 44.0778 44.0829L45.7918 35.8775C46.0386 34.6997 45.7671 33.4719 45.0459 32.5136C44.3246 31.5553 43.2304 30.9636 42.043 30.8914ZM44.7195 35.6469L43.0056 43.8524C42.7944 44.8579 41.9086 45.5857 40.894 45.5857C39.7724 45.5857 38.8482 44.733 38.744 43.5996L37.9816 35.247C37.9021 34.3664 38.2038 33.497 38.8098 32.8637C39.3748 32.272 40.1481 31.9443 40.9543 31.9443C41.0147 31.9443 41.075 31.9443 41.1353 31.9498L41.9745 32.0026C42.8438 32.0554 43.6445 32.4887 44.1711 33.1887C44.6976 33.8887 44.8978 34.7859 44.7168 35.647L44.7195 35.6469ZM35.4997 29.9997C37.5647 29.9997 39.6049 29.7358 41.3986 29.2386C41.6426 29.1719 41.8099 28.9414 41.8017 28.6858C41.6947 25.2164 38.9277 22.4999 35.4999 22.4999C32.072 22.4999 29.3051 25.2166 29.1981 28.6858C29.1898 28.9414 29.3571 29.1719 29.6012 29.2386C31.3946 29.7358 33.4322 29.9997 35.4972 29.9997H35.4997ZM35.4997 23.6108C38.1844 23.6108 40.3781 25.6302 40.6744 28.2803C39.3307 28.6164 37.8525 28.8164 36.3386 28.8719L37.6495 25.7747C37.7701 25.4914 37.6385 25.1664 37.3615 25.0442C37.0846 24.9247 36.761 25.0553 36.6403 25.3359L35.1403 28.8831C33.462 28.8581 31.8111 28.6525 30.3247 28.2803C30.6181 25.6275 32.8147 23.6108 35.4994 23.6108L35.4997 23.6108Z" fill="white"/>
</svg>
