<svg width="71" height="71" viewBox="0 0 71 71" fill="none" xmlns="http://www.w3.org/2000/svg">
<rect x="0.5" y="0.5" width="70" height="70" rx="35" fill="#F9895B"/>
<path d="M41.8174 19.9004C41.8709 19.9004 41.9319 19.9139 41.9863 19.9355C42.0408 19.9572 42.0983 19.99 42.1426 20.0342L47.9658 25.8574L48.0254 25.9346C48.0421 25.9621 48.0558 25.991 48.0664 26.0186C48.0874 26.0732 48.0996 26.1323 48.0996 26.1826V50.04C48.0994 50.2933 47.8939 50.499 47.6406 50.499H24.3594C24.1061 50.499 23.9006 50.2933 23.9004 50.04V20.3594C23.9004 20.1059 24.1059 19.9004 24.3594 19.9004H41.8174ZM24.8184 49.5811H47.1816V26.6416H41.8174C41.5643 26.6414 41.3586 26.4357 41.3584 26.1826V20.8184H24.8184V49.5811ZM42.2764 25.7236H46.5332L42.2764 21.4668V25.7236Z" fill="white" stroke="white" stroke-width="0.2"/>
<path d="M44.7285 45.0386C44.982 45.0386 45.1875 45.2441 45.1875 45.4976C45.1873 45.7509 44.9818 45.9565 44.7285 45.9565H27.2705C27.0172 45.9565 26.8117 45.7509 26.8115 45.4976C26.8115 45.2441 27.0171 45.0386 27.2705 45.0386H44.7285Z" fill="white" stroke="white" stroke-width="0.2"/>
<path d="M44.7285 40.4961C44.982 40.4961 45.1875 40.7016 45.1875 40.9551C45.1873 41.2084 44.9818 41.4141 44.7285 41.4141H27.2705C27.0172 41.4141 26.8117 41.2084 26.8115 40.9551C26.8115 40.7016 27.0171 40.4961 27.2705 40.4961H44.7285Z" fill="white" stroke="white" stroke-width="0.2"/>
<path d="M44.7285 35.9531C44.982 35.9531 45.1875 36.1587 45.1875 36.4121C45.1873 36.6654 44.9818 36.8711 44.7285 36.8711H27.2705C27.0172 36.8711 26.8117 36.6654 26.8115 36.4121C26.8115 36.1587 27.0171 35.9531 27.2705 35.9531H44.7285Z" fill="white" stroke="white" stroke-width="0.2"/>
<path d="M34.1592 22.7114V22.811C34.1592 23.4451 33.8972 24.0218 33.4814 24.438L33.4824 24.439C33.2226 24.7027 32.8998 24.8927 32.542 25.0034C32.58 25.0955 32.6148 25.1884 32.6455 25.2827C33.0779 25.2237 33.5018 25.0951 33.873 24.9058L33.874 24.9048L34.0811 24.812C34.5619 24.6214 35.0197 24.6144 35.4287 24.7651C35.894 24.9367 36.2838 25.3082 36.5713 25.8169C37.1096 26.7695 37.2996 28.2212 36.9531 29.8452L36.877 30.1714C36.4941 31.6786 35.7032 32.9678 34.7695 33.5884L34.5811 33.7036C34.0059 34.0233 33.384 34.1015 32.7598 33.812L32.7568 33.811C32.4618 33.6652 32.2244 33.6374 32.0107 33.6616C31.7916 33.6866 31.5947 33.7656 31.3711 33.8452C31.1511 33.9236 30.9107 33.9996 30.627 33.9985C30.3775 33.9975 30.1005 33.9366 29.7754 33.7769L29.6328 33.7026C28.6677 33.1653 27.8588 31.9658 27.4199 30.4741L27.3369 30.1714C26.8615 28.2867 27.0775 26.7177 27.6807 25.7417C27.9827 25.2531 28.3842 24.9107 28.8467 24.7583C29.2525 24.6246 29.6974 24.6391 30.1504 24.8208L30.3447 24.9097L30.499 24.9839C30.8093 25.1236 31.1397 25.2133 31.4834 25.2651C31.2761 24.8522 30.9654 24.4911 30.5391 24.1802L30.459 24.1108C30.3865 24.0347 30.3389 23.9396 30.3174 23.8364L30.3154 23.8286C30.2987 23.6946 30.3253 23.5537 30.4131 23.439L30.4531 23.3872C30.5524 23.2724 30.6943 23.2036 30.8506 23.2036C30.9655 23.2036 31.0708 23.246 31.1562 23.3081H31.1572C31.4708 23.5327 31.7394 23.7854 31.9688 24.0591C32.3321 23.2653 33.1278 22.7114 34.0596 22.7114H34.1592ZM35.2871 25.6997C35.0211 25.5417 34.6903 25.5227 34.2871 25.7241L34.2881 25.7251C33.0584 26.3522 31.5137 26.4227 30.1904 25.8511L29.9287 25.728C29.5297 25.5259 29.2015 25.5439 28.9365 25.7017C28.6648 25.8636 28.4415 26.1831 28.2832 26.6177C27.967 27.4857 27.929 28.7623 28.2275 29.9458L28.2979 30.2046C28.6717 31.4792 29.3481 32.4936 30.0791 32.9009L30.2334 32.979C30.3782 33.0442 30.4961 33.0721 30.5986 33.0786C30.7349 33.0872 30.8536 33.0575 30.9854 33.0093C31.2503 32.9124 31.5651 32.7388 32.1113 32.7388C32.6507 32.7388 32.965 32.9126 33.2295 33.0093C33.361 33.0573 33.48 33.0869 33.6162 33.0786C33.753 33.0702 33.917 33.0229 34.1348 32.9019L34.2803 32.812C35.003 32.3256 35.6545 31.2548 35.9873 29.9458L36.04 29.7222C36.2835 28.6022 36.2353 27.4293 35.9404 26.6157C35.783 26.1813 35.5598 25.8618 35.2871 25.6997Z" fill="white" stroke="white" stroke-width="0.2"/>
</svg>
